<svg xmlns="http://www.w3.org/2000/svg" xml:space="preserve" width="2000" height="1500" data-id="lg_lsfkDgNOL0SHSQKPPt" data-version="1" viewBox="0 0 2000 1500"><path fill="#111" stroke="transparent" d="M0 0h2000v1500H0z"/><g data-padding="20"><g transform="translate(-1666.068 -1259.305)scale(2.5963)"><rect width="574.629" height="222.61" x="484.491" y="575.118" fill="none" rx="0" ry="0" transform="matrix(.97 0 0 .97 278.22 108.08)"/><path fill="#c6d2ff" d="M871.802 724.67h-41.19V835.6h-17.66V724.67h-41.2v-14.5h100.05Zm145.33 110.93h-18.04l-12.83-35.52h-52.35l-12.74 35.52h-18.22l47.42-125.43h20.18Zm-51.51-95.87-5.39-16.18-1.12 3.63-6.42 19.71-14.04 39.34h43.05Zm177.88 95.87h-80.24V710.17h17.76v110.92h62.48Zm62.21-125.43 30.87 47.7 30.97-47.7h19.06l-40.45 59.88 44.26 65.55h-19.06l-34.78-53.28-34.68 53.28h-19.06l44.26-65.55-40.45-59.88Z"/></g><path fill="transparent" stroke="transparent" stroke-width="2.693" d="M250 459.156h1500v581.688H250z"/></g></svg>