<svg xmlns="http://www.w3.org/2000/svg" viewBox="0 0 512 512" id="robo-advisor">
  <path fill="#c5d3dd" d="M143.17 372.02h31.03v110.39h-31.03zM230.66 372.02h31.03v110.39h-31.03z"></path>
  <path fill="#b6c4cf" d="m261.69 412.41-31.03-20v-20.39h31.03v40.39zM174.21 412.41l-31.04-20v-20.39h31.04v40.39z"></path>
  <path fill="#e8edf2" d="M365.26 194.33a154.07 154.07 0 0 1-140.52 91h-14.89a15 15 0 1 1 0-30h14.89a124.14 124.14 0 0 0 113.15-73.24 15 15 0 1 1 27.37 12.28Z"></path>
  <path fill="#d9e7ec" d="M365.26 194.33a153.56 153.56 0 0 1-15.15 26.4 38.57 38.57 0 0 1-25.41-16.07 123.71 123.71 0 0 0 13.19-22.61 15 15 0 1 1 27.37 12.28Z"></path>
  <circle cx="356.36" cy="182.71" r="26" fill="#9facba"></circle>
  <path fill="#e8edf2" d="M195 291.71a15 15 0 0 1-15 15h-14.88A124 124 0 0 0 52 380a15 15 0 1 1-27.37-12.28 154.08 154.08 0 0 1 140.51-91H180a15 15 0 0 1 15 14.99Z"></path>
  <path fill="#d9e7ec" d="M65.8 356.47A123.7 123.7 0 0 0 52 380a15 15 0 1 1-27.37-12.28 152.92 152.92 0 0 1 15.82-27.33 39.46 39.46 0 0 1 25.35 16.08Z"></path>
  <circle cx="33.5" cy="379.29" r="26" fill="#9facba"></circle>
  <rect width="206.85" height="159.36" x="99.01" y="227.66" fill="#9facba" rx="25"></rect>
  <path fill="#c5d3dd" d="M160.36 196h84.15v31.66h-84.15z"></path>
  <path fill="#b6c4cf" d="M244.51 196h-84.15v11.66l84.15 10V196z"></path>
  <path fill="#fff" d="M202.43 334.54a7.5 7.5 0 0 1-7.5-7.5v-24.16a7.5 7.5 0 0 1 7.5-7.5 15 15 0 1 0-15-15 7.5 7.5 0 0 1-15 0 30 30 0 1 1 37.49 29.05V327a7.5 7.5 0 0 1-7.49 7.54Z"></path>
  <circle cx="202.43" cy="356.8" r="7.5" fill="#fff"></circle>
  <path fill="#9facba" d="M246.17 467.21a30.22 30.22 0 0 1 30.22 30.22v7.08H216v-7.08a30.22 30.22 0 0 1 30.17-30.22zm-87.48 0a30.22 30.22 0 0 1 30.22 30.22v7.08h-60.44v-7.08a30.22 30.22 0 0 1 30.22-30.22z"></path>
  <rect width="156.86" height="81.87" x="124" y="114.13" fill="#c5d3dd" rx="25"></rect>
  <circle cx="164.94" cy="155.07" r="15.94" fill="#fff"></circle>
  <circle cx="239.92" cy="155.07" r="15.94" fill="#fff"></circle>
  <path fill="#c5d3dd" d="M202.93 90a7.5 7.5 0 0 1-7.5-7.5v-40a7.5 7.5 0 0 1 15 0v40a7.5 7.5 0 0 1-7.5 7.5Z"></path>
  <circle cx="202.43" cy="25" r="17.5" fill="#fe646f"></circle>
  <path fill="#9facba" d="M168.69 82.47h67.49a8.33 8.33 0 0 1 8.33 8.33v23.33h-84.15V90.8a8.33 8.33 0 0 1 8.33-8.33Z"></path>
  <path fill="#fedf30" d="M422.8 7.5c-45.12 0-81.7 26.45-81.7 59.07 0 12.47 5.36 24 14.49 33.57l-19.87 23.43 51.62-3.77a107.93 107.93 0 0 0 35.46 5.84c45.12 0 81.7-26.45 81.7-59.07S467.92 7.5 422.8 7.5Z"></path>
  <path fill="#fed402" d="M441.3 9c20.14 10.76 33.2 28 33.2 47.53 0 32.62-36.58 59.07-81.7 59.07a107.93 107.93 0 0 1-35.46-5.84l-10.6.77-11 13 51.62-3.77a107.93 107.93 0 0 0 35.46 5.84c45.12 0 81.7-26.45 81.7-59.07C504.5 38.55 477.51 15.1 441.3 9Z"></path>
  <path fill="#fef0ae" d="M457.63 87.5h-69.26a7.5 7.5 0 0 1 0-15h69.26a7.5 7.5 0 0 1 0 15zm0-30h-69.26a7.5 7.5 0 0 1 0-15h69.26a7.5 7.5 0 0 1 0 15z"></path>
</svg>
